<svg width="37" height="35" viewBox="0 0 37 35" fill="none" xmlns="http://www.w3.org/2000/svg">
<path d="M8.6116 22.3213L8.61723 21.8651L8.30247 21.5348C7.46905 20.6603 6.63446 19.8564 5.79397 19.0468C5.30911 18.5797 4.82228 18.1108 4.33258 17.6253L4.33253 17.6253C4.10587 17.4006 3.81691 17.1375 3.52368 16.8705C3.46443 16.8166 3.405 16.7625 3.34588 16.7085C2.98188 16.3762 2.60636 16.0281 2.26107 15.6758C1.9128 15.3205 1.62015 14.9856 1.41229 14.685C1.19172 14.366 1.13574 14.1833 1.12859 14.1218L0.0161666 14.251L1.12859 14.1218C1.07207 13.6354 1.16267 13.3876 1.24579 13.2531C1.33488 13.109 1.50015 12.9592 1.81889 12.8186C2.42237 12.5525 3.21254 12.4558 4.14585 12.3414C4.31639 12.3206 4.49171 12.2991 4.67154 12.2759C5.05014 12.2271 5.45302 12.1771 5.87205 12.1252C7.76404 11.8907 9.98535 11.6154 11.7883 11.2161L12.2394 11.1162L12.4888 10.7273C13.131 9.72615 13.8828 8.1395 14.5282 6.77761C14.7831 6.23975 15.0213 5.73695 15.2296 5.31911L15.2296 5.31909C15.3769 5.0237 15.5298 4.68205 15.6753 4.35694C15.747 4.19682 15.8168 4.04071 15.8833 3.89611C16.1005 3.42401 16.3146 2.99792 16.5539 2.63574C17.026 1.92132 17.4793 1.61506 18.0843 1.61997C18.6725 1.62475 19.1248 1.94375 19.599 2.6932C19.8364 3.06847 20.0463 3.5033 20.2594 3.97775C20.309 4.08824 20.3601 4.20386 20.4122 4.32191C20.5701 4.6797 20.7379 5.0598 20.9061 5.38687L21.8939 4.87899L20.9061 5.38688C21.1676 5.89542 21.4229 6.38372 21.6731 6.86211C22.3361 8.12997 22.9628 9.32823 23.5706 10.6492L23.8314 11.2161L24.4507 11.2926C24.8681 11.3441 25.3936 11.4046 25.9879 11.4729C27.0195 11.5915 28.2586 11.7339 29.5002 11.8954C31.4864 12.1536 33.2523 12.4345 33.993 12.6837L34.3502 11.6223L33.993 12.6837C34.4099 12.824 34.7639 13.1037 34.9415 13.4135C35.0909 13.6739 35.1555 14.0117 34.9163 14.4876L34.9163 14.4876C34.921 14.4783 34.9204 14.4791 34.9115 14.4915C34.8939 14.5161 34.8435 14.5862 34.7369 14.713C34.5977 14.8785 34.4082 15.0875 34.1763 15.3321C33.7138 15.82 33.1169 16.4135 32.4921 17.0202C31.5136 17.9703 30.4923 18.9281 29.847 19.5331C29.6681 19.7009 29.5181 19.8416 29.4059 19.9475C28.8524 20.4699 28.3555 20.9546 28.0309 21.486C27.6593 22.0945 27.5418 22.7045 27.5727 23.4083C27.6006 24.0428 27.7543 24.8148 27.9467 25.761C27.9635 25.8438 27.9808 25.9286 27.9985 26.0155C28.19 26.9549 28.4315 28.1402 28.6953 29.7004C28.9295 31.0863 28.9434 32.0114 28.8431 32.6019C28.7452 33.1778 28.569 33.2917 28.53 33.3147C28.4536 33.3596 28.2356 33.4301 27.725 33.3268C27.2287 33.2264 26.6137 32.9933 25.8902 32.651C25.1743 32.3124 24.4102 31.8953 23.6154 31.4562C23.5405 31.4148 23.4653 31.3733 23.3899 31.3315C22.6767 30.9371 21.9415 30.5304 21.2398 30.181C20.4694 29.7973 19.68 29.4518 18.9436 29.2604C18.2348 29.0761 17.3782 28.9811 16.6074 29.3471L16.6074 29.3471C15.8595 29.7021 14.9585 30.2189 14.0427 30.7441C13.8387 30.8612 13.6338 30.9787 13.4298 31.0949C12.2769 31.7515 11.1137 32.3893 10.0577 32.8257C8.9508 33.2832 8.18554 33.4206 7.74562 33.3323C7.57364 33.2978 7.48299 33.2354 7.41297 33.148C7.32831 33.0423 7.20653 32.812 7.14929 32.3366C7.09649 31.8981 7.13196 31.2633 7.24885 30.445C7.36357 29.6419 7.54406 28.7417 7.74159 27.7941C7.77556 27.6311 7.81022 27.4661 7.84519 27.2996C8.20333 25.5944 8.59418 23.7336 8.6116 22.3213Z" stroke="black" stroke-width="2.23982"/>
</svg>
